<?xml version="1.0" encoding="UTF-8"?><svg id="Layer_1" xmlns="http://www.w3.org/2000/svg" viewBox="0 0 670.64 180.74"><g><path d="m191.46,133.43c1.14.34,2.27.7,3.41,1.07.19-.39.29-.87.29-1.45v-14.2c-4.23-2.4-8.19-5.32-12.12-8.26v19.4c2.67,1.38,5.47,2.55,8.42,3.44Z" style="fill:#333;"/><path d="m52.96,110.16l10.77,18.85v-17.74c-4.92-1.92-9.91-3.64-14.92-5.31-4.89-1.63-9.96-2.69-14.84-4.33-1.77-.59-3.71-1.8-4.73-3.3-2.72-4.01-3.79-4.4-8.47-2.85-2.58.85-5.37,1.25-8.1,1.39-3.15.16-5.97.94-7.74,3.57-1.68,2.5-3.13,5.21-4.23,8-.63,1.61-1.45,3.88.55,5.2,1.99,1.32,3.75-.02,5.32-1.3.38-.31.77-.62,1.15-.94,1.75-1.46,3.55-1.82,5.92-1.26,4.55,1.07,9.21,1.69,13.84,2.34.94.13,1.97-.39,2.96-.61,5.18.96,9.7,3.4,13.98,6.35v-8.07h8.53Z" style="fill:#333;"/><path d="m246.77,123.7c-.08-1.83-1.03-2.98-2.88-3.53-1.85-.56-2.72.52-3.68,1.71-1.01,1.26-1.89,2.87-3.23,3.6-3.8,2.05-7.65,4.28-12.33,2.9-.92-.27-1.94-.19-2.83-.27-1.15,2.34-1.21,2.48-3.32,1.54-5.07-2.26-10.24-4.36-15.27-6.7v10.09c0,1.58-.18,2.95-.54,4.09,3.15,1.1,6.3,2.24,9.44,3.35,1.68.6,3.64,1.2,4.74,2.44,2.8,3.15,6.55,4.57,10.11,6.4,1.83.94,3.14.63,4.24-1.31,3.12-5.52,6.71-10.66,11.62-14.86,2.75-2.35,4.09-5.72,3.92-9.47Z" style="fill:#333;"/><path d="m182.47,110.16c-1.61-1.2-3.21-2.4-4.84-3.57-2.79-2-5.4-4.26-8.25-6.18-1.01-.68-2.45-.84-3.73-1-4.05-.51-8.13-.82-12.18-1.39-7.5-1.05-14.99-2.23-23.16-3.45,6.63-5.4,13.12-10.82,19.77-16.04,2.53-1.99,5.82-1.4,8.13.74,4.04,3.74,8.16,7.39,12.25,11.08,2.49,2.25,5.37,2.58,8.19,1.03,2.4-1.33,4.86-2.87,6.68-4.88,4.61-5.11,8.62-10.76,13.35-15.74,2.89-3.04,4.01-6.23,3.72-10.21-.24-3.31-3-5.22-6.07-4.16-.85.29-1.7.64-2.57.86-1.76.43-2.85,1.64-2.79,3.3.07,2.05.68,4.07,1.21,6.98-4.91,3.25-10.41,6.89-15.59,10.32-1.51-1.6-2.39-2.96-3.62-3.76-2.17-1.41-2.98-3.26-3.02-5.76-.07-4.44-1.56-8.34-4.86-11.45-1-.94-1.95-1.92-2.91-2.87,1.96-2.27,3.65-2.66,6.13-1.47,1.11.53,2.24,1.05,3.26,1.72,1.6,1.05,2.62.84,4.19-.49,2.3-1.96,3.49-5.43,7.31-5.6-.02-.79.04-1.54-.08-2.24-.38-2.11-.15-3.89,1.49-5.6,1.75-1.82,2.45-4.23,2.09-6.84-.07-.51-.08-1.4.18-1.54,2.09-1.09,3.9-3,1.69-4.35-4.56-2.78-7.18-6.84-12.63-9.32-6.06-2.76-10.72-1.82-14.14,2.31-1.78,2.15-3.43,4.41-4.97,6.73-.8,1.21-1.52,2.6-1.79,4.01-.66,3.41-1.8,4.61-4.79,5-2.8-2.84-5.34-5.35-7.78-7.95-.76-.81-1.51-1.81-1.79-2.85-1.32-5.02-5.06-7.88-9.04-10.59-1.08-.73-2.12-1.52-3.14-2.34-1.86-1.48-3.5-3.34-5.56-4.42-5.42-2.84-11.01-5.34-16.53-7.98-.82-.07-1.64-.14-2.46-.21-.74,2.1-1.59,4.17-2.19,6.31-1.41,4.97-2.7,9.93-2.2,15.24.54,5.73,2.75,11.24.35,17.34-1.55,3.95-1.03,8.73-1.36,13.14-.05.65.12,1.6.56,1.95,1.92,1.5,5.5,1.46,7.59.15.3-.19.75-.21,1.13-.22,1.62-.02,4.95-2.58,5.07-4.14.24-3.03.43-6.04-2.36-8.32-.88-.72-1.81-2.03-1.8-3.06.03-6.52,1.68-12.7,4.31-18.68,4.1,3.5,8.04,6.84,11.97,10.21.96.82,1.66,1.61,1.03,3.15-.95,2.33-1.51,4.82-2.31,7.21-1.01,3.01-1.86,6.11-3.22,8.96-4.79,10.05-11.2,18.79-21.26,24.19-6.53,3.5-10.18,9.11-12.28,15.93-1.15,3.73-1.86,7.61-3.25,11.24-2.54,6.61-7.1,12.42-7.58,20.12-1.54-2.52-2.67-4.19-4.21-5.5v21.95c2.21,1.6,4.44,3.19,6.81,4.51,3.89,2.17,5.49,2.37,7.83,0-2.58-.14-5.22-.32-7.94-.55v-6.06c5.46.3,9.73.5,12.84.6,1.6-2.06,3.19-4.13,4.76-6.21h-9.03c-3.14,0-5.42-.71-6.84-2.13-1.42-1.42-2.13-3.7-2.13-6.84v-1.35c0-3.14.71-5.42,2.13-6.85s3.7-2.13,6.84-2.13h15.75v6.28h-13.96c-1.8,0-2.69.9-2.69,2.69v.9c0,1.8.9,2.69,2.69,2.69h8.08c1.46,0,2.73.17,3.8.51.65-.88,1.3-1.75,1.95-2.63,1.05-1.43,1.89-1.78,3.62-1.25,2,.61,4,1.14,6.02,1.52l-5.52-10.73h8.53l5.45,11.23c.66-.06,1.33-.14,2.01-.25.71-.12,1.44-.2,2.16-.27l5.2-10.71h8.53l-5.39,10.47c.59,0,1.18,0,1.76,0,2.02,0,4.05.6,6.07.58.06,0,.12,0,.18,0,0-.24-.02-.47-.02-.73v-1.35c0-3.14.71-5.42,2.13-6.85s3.7-2.13,6.85-2.13h15.75v6.28h-13.96c-1.79,0-2.69.9-2.69,2.69v.9c0,.24.02.46.05.67,3.56-.46,7.05-1.32,10.41-2.93,2.62-1.25,4.94-.77,7.21,1.23,2.45,2.17,5.23,3.97,7.88,5.91.01,0,.02.01.03.02v-14.78h7.5Z" style="fill:#333;"/><path d="m52.52,124.35c.58.47,1.15.94,1.73,1.41l-1.73-3.03v1.63Z" style="fill:#333;"/><path d="m66.49,133.37c-4.68-1.64-8.49-4.58-12.24-7.61l9.04,15.82h8.53v-4.42c-1.11-.8-2.21-1.6-3.33-2.38-.67-.46-1.26-1.15-2-1.41Z" style="fill:#333;"/><path d="m71.82,115.21v-5.05h-8.08v1.11c1.48.58,2.95,1.17,4.42,1.78,1.53.65,2.68,1.32,3.66,2.15Z" style="fill:#333;"/><path d="m44.44,118.23v23.35h8.08v-17.23c-.77-.62-1.54-1.24-2.32-1.85-1.9-1.47-3.8-2.92-5.76-4.27Z" style="fill:#333;"/><path d="m97.4,129.46v4.04c0,.69-.2,1.23-.61,1.64-.4.4-.95.61-1.64.61-.97,0-2.24-.03-3.81-.08-1.08,1.39-2.17,2.77-3.27,4.14-.6.75-1.13,1.36-1.63,1.87.51.03,1.02.06,1.53.08l4.13.18c1.71.06,3.32.09,4.85.09,2.93,0,5.09-.69,6.46-2.06,1.38-1.38,2.06-3.53,2.06-6.46v-2.24c0-2.93-.69-5.09-2.06-6.46-.69-.69-1.58-1.21-2.66-1.55-1.54,2.08-3.09,4.15-4.65,6.22h1.29Z" style="fill:#333;"/><path d="m124.97,120.87l-2.21,4.55-1.96-4.03c-2.89.25-5.69.02-8.46-.5l6.37,12.39v8.3h8.08v-8.3l6.51-12.64c-2.79,0-5.59-.03-8.34.24Z" style="fill:#333;"/><path d="m143.43,127.32c1.42,1.42,3.7,2.13,6.85,2.13h10.32v4.04c0,.69-.2,1.23-.61,1.64-.4.4-.95.61-1.64.61-2.9,0-8.45-.22-16.65-.67v6.06c3.26.27,6.42.48,9.47.63l4.13.18c1.71.06,3.32.09,4.85.09,2.93,0,5.09-.69,6.46-2.06,1.38-1.38,2.07-3.53,2.07-6.46v-2.24c0-2.93-.69-5.09-2.07-6.46s-3.53-2.07-6.46-2.07h-8.08c-1.55,0-2.43-.67-2.64-2.02-2.67.35-5.39.46-8.11.5.1,2.77.8,4.81,2.11,6.12Z" style="fill:#333;"/><path d="m183.04,110.16h-.58c.19.14.38.29.58.43v-.43Z" style="fill:#333;"/><path d="m192.47,135.74h-6.73c-1.8,0-2.69-.9-2.69-2.69v-3.06c-2.81-1.45-5.49-3.15-8.08-5.05v8.11c0,3.14.71,5.42,2.13,6.85,1.42,1.42,3.7,2.13,6.85,2.13h10.32c3.14,0,5.42-.71,6.85-2.13.71-.71,1.24-1.62,1.59-2.75-2.6-.91-5.21-1.8-7.83-2.64-.39.82-1.19,1.24-2.4,1.24Z" style="fill:#333;"/><path d="m203.24,122.95v-12.8h-8.08v8.69c.13.08.26.16.39.23,2.5,1.4,5.08,2.67,7.69,3.88Z" style="fill:#333;"/><path d="m32.5,147.15l-11.89,31.42h8.75l2.02-5.61h11.22l2.02,5.61h8.75l-11.89-31.42h-8.98Zm.9,19.97l3.59-10.55,3.59,10.55h-7.18Z" style="fill:#333;"/><path d="m64.82,172.29c-.3-.3-.45-.67-.45-1.12v-10.32h5.61v-6.06h-5.61v-5.39h-6.96l-.9,5.39h-2.69v6.06h2.69v11.45c0,2.04.61,3.67,1.84,4.89,1.23,1.23,2.86,1.84,4.89,1.84,2.78,0,5.63-.15,8.53-.45v-5.84h-5.84c-.45,0-.82-.15-1.12-.45Z" style="fill:#333;"/><path d="m92.42,154.33h-2.02c-2.18,0-4.73.3-7.63.9v-8.08h-7.85v31.42h7.85v-17.73c.57-.06,1.32-.15,2.27-.27.94-.12,1.98-.18,3.12-.18h1.57c.45,0,.82.15,1.12.45.3.3.45.67.45,1.12v16.61h7.85v-17.51c0-2.03-.61-3.67-1.84-4.89-1.23-1.23-2.86-1.84-4.89-1.84Z" style="fill:#333;"/><path d="m111.5,172.29c-.3-.3-.45-.67-.45-1.12v-24.01h-7.85v25.14c0,2.04.61,3.67,1.84,4.89,1.23,1.23,2.75,1.84,4.56,1.84s3.72-.15,5.72-.45v-5.84h-2.69c-.45,0-.82-.15-1.12-.45Z" style="fill:#333;"/><path d="m134.16,154.33h-8.98c-2.24,0-4,.64-5.27,1.91-1.27,1.27-1.91,3.03-1.91,5.27v10.77c0,2.04.61,3.67,1.84,4.89,1.23,1.23,2.86,1.84,4.89,1.84,4.7,0,9.93-.3,15.71-.9v-5.61c-5.72.45-10.05.67-13.02.67-.45,0-.82-.15-1.12-.45-.3-.3-.45-.67-.45-1.12v-1.79h15.49v-8.3c0-2.24-.64-4-1.91-5.27-1.27-1.27-3.03-1.91-5.27-1.91Zm-.67,9.88h-7.63v-2.47c0-1.2.6-1.8,1.8-1.8h4.04c1.2,0,1.8.6,1.8,1.8v2.47Z" style="fill:#333;"/><path d="m155.03,172.29c-.3-.3-.45-.67-.45-1.12v-10.32h5.61v-6.06h-5.61v-5.39h-6.96l-.9,5.39h-2.69v6.06h2.69v11.45c0,2.04.61,3.67,1.84,4.89,1.23,1.23,2.86,1.84,4.89,1.84,2.78,0,5.63-.15,8.53-.45v-5.84h-5.84c-.45,0-.82-.15-1.12-.45Z" style="fill:#333;"/><rect x="166.26" y="146.7" width="7.85" height="6.28" style="fill:#333;"/><polygon points="162.89 161.74 166.26 161.74 166.26 178.57 174.11 178.57 174.11 155.68 162.89 155.68 162.89 161.74" style="fill:#333;"/><path d="m180.06,156.69c-1.27,1.27-1.91,3.03-1.91,5.27v10.32c0,2.04.61,3.67,1.84,4.89,1.23,1.23,2.86,1.84,4.89,1.84,4.28,0,9.22-.3,14.81-.9v-5.84c-5.39.45-9.43.67-12.12.67-.45,0-.82-.15-1.12-.45-.3-.3-.45-.67-.45-1.12v-8.75c0-1.2.6-1.79,1.8-1.79h11.89v-6.06h-14.36c-2.24,0-4,.64-5.27,1.91Z" style="fill:#333;"/><path d="m219.44,163.76h-8.08c-.45,0-.82-.15-1.12-.45-.3-.3-.45-.67-.45-1.12s.15-.82.45-1.12c.3-.3.67-.45,1.12-.45h12.57v-5.84h-15.26c-2.04,0-3.67.61-4.89,1.84-1.23,1.23-1.84,2.86-1.84,4.89v1.57c0,2.03.61,3.67,1.84,4.89,1.23,1.23,2.86,1.84,4.89,1.84h9.65v1.57c0,.45-.15.82-.45,1.12-.3.3-.67.45-1.12.45-3.5,0-8.29-.22-14.36-.67v5.84c6.07.6,11.76.9,17.06.9,2.03,0,3.66-.61,4.89-1.84,1.23-1.23,1.84-2.86,1.84-4.89v-1.8c0-2.03-.61-3.67-1.84-4.89-1.23-1.23-2.86-1.84-4.89-1.84Z" style="fill:#333;"/></g><g><g><path d="m328.62,25.56v42.96h-5.66v-2.02h-29.86v2.02h-5.42V25.56h40.95Zm-5.66,35.86v-30.72h-5.95c1.54.77,3.17,1.87,4.03,2.78l-1.92,2.02h2.3v4.03h-8.59c.24,2.69.53,5.18.91,7.34.96-1.87,1.68-3.84,2.26-6l4.37.86c-1.15,4.18-2.88,7.82-5.04,10.99.62,1.44,1.34,2.35,2.21,2.54.53.19.91-1.68,1.1-4.46.86.86,2.59,2.16,3.55,2.69-.77,5.9-3.26,7.73-6.43,6.29-1.44-.48-2.64-1.58-3.6-3.17-1.54,1.54-3.17,2.93-4.99,4.08-.62-.86-2.16-2.69-3.12-3.46.53-.29,1.06-.62,1.54-.96-3.84.58-7.58,1.1-10.75,1.63l-.53-4.18c3.5-.38,8.5-.96,13.49-1.63l.1,2.4c.86-.72,1.63-1.54,2.4-2.4-1.01-3.46-1.63-7.82-2.06-12.58h-13.35v-4.03h13.01c-.1-1.34-.14-2.69-.24-4.08h4.7c.05,1.39.1,2.74.19,4.08h5.18c-1.01-.86-2.45-1.87-3.7-2.54l2.26-2.26h-23.19v30.72h29.86Zm-16.18-10.71h-10.71v-9.12h10.71v9.12Zm-3.84-6.1h-3.22v3.07h3.22v-3.07Z" style="fill:#333;"/><path d="m377.97,60.79v5.81h-43.54v-5.81h23.52c2.4-5.86,4.94-14.59,6.19-21.36l6.48,1.25c-1.82,6.96-4.32,14.55-6.48,20.11h13.83Zm-2.02-22.9h-39.36v-5.76h17.43c-.48-2.16-1.44-5.33-2.3-7.68l5.71-1.44c1.01,2.4,2.06,5.57,2.59,7.63l-5.14,1.49h21.07v5.76Zm-29.43,21.75c-.58-5.14-2.35-13.01-3.98-18.96l5.76-1.39c1.82,6.05,3.55,13.63,4.37,18.77l-6.15,1.58Z" style="fill:#333;"/><path d="m423.95,31.84v23.95h-6v-2.4h-10.85v14.98h-6.05v-14.98h-10.8v2.64h-5.76v-24.19h16.56v-8.3h6.05v8.3h16.85Zm-22.9,15.94v-10.32h-10.8v10.32h10.8Zm16.9,0v-10.32h-10.85v10.32h10.85Z" style="fill:#333;"/><path d="m471.81,33.67v34.61h-6v-3.41h-33.03v-31.01h5.86v25.15h10.51V23.88h6v35.14h10.66v-25.35h6Z" style="fill:#333;"/><path d="m504.59,42.31c3.17,9.36,8.98,16.9,17.95,20.54-1.44,1.2-3.31,3.75-4.22,5.38-8.69-4.08-14.26-11.09-18-20.35-2.59,8.02-7.78,15.5-17.95,20.4-.91-1.58-2.59-3.65-4.27-4.85,10.99-4.9,15.55-12.87,17.43-21.12h-16.51v-5.91h17.47c.48-4.51.43-8.88.48-12.82h6.24c-.05,3.94-.1,8.35-.58,12.82h18.87v5.91h-16.9Z" style="fill:#333;"/><path d="m569.83,59.59h-18.34v3.46c0,2.54-.58,3.79-2.54,4.56-1.97.67-4.61.72-8.21.72-.24-1.54-1.06-3.46-1.73-4.8,2.26.1,5.14.1,5.86.05.77,0,1.01-.14,1.01-.72v-3.26h-19.44v-4.51h19.44v-1.39c1.73-.67,3.55-1.73,5.28-2.79h-15.41v-3.98h20.88l1.2-.29,3.22,2.93c-2.64,1.92-5.9,3.89-9.17,5.52h17.95v4.51Zm-37.11-9.03h-5.42v-9.84h3.6l-.86-14.26c2.88-.48,7.15-1.78,9.7-2.69l2.3,3.31c-1.87.72-4.27,1.34-6.53,1.82l.1,1.39h6.1v3.55h-5.9l.1,1.63h5.9v2.45c1.15-.58,2.3-1.15,3.36-1.82-.91-.58-1.82-1.1-2.69-1.58l2.64-2.26c.96.48,1.97,1.06,2.98,1.63.72-.67,1.39-1.34,1.92-2.02l3.74,1.1c-.72,1.01-1.58,1.97-2.54,2.88,1.15.77,2.16,1.49,2.88,2.21l-2.83,2.5c-.72-.72-1.68-1.49-2.78-2.35-1.3.96-2.59,1.78-3.89,2.5h15.55l.19-1.68h-5.67v-3.55h6l.1-1.63h-5.86v-3.55h6.1l.1-1.58h-6.48v-3.6h12.05c-.24,5.04-.58,11.14-1.01,15.6h3.55v9.84h-5.67v-5.71h-30.82v5.71Zm3.46-9.84h7.78c-.53-.62-1.44-1.54-2.16-2.21v.53h-5.71l.1,1.68Zm14.88-8.83c-.62-.62-1.54-1.3-2.5-2.02-1.3.96-2.59,1.78-3.89,2.4-.67-.67-2.06-1.92-2.98-2.54,1.25-.48,2.5-1.15,3.65-1.87-.91-.53-1.73-1.01-2.59-1.44l2.54-2.21c.91.43,1.92.96,2.93,1.54.62-.62,1.25-1.25,1.73-1.92l3.74,1.1c-.67.91-1.49,1.82-2.4,2.64.96.67,1.82,1.34,2.5,1.92l-2.74,2.4Z" style="fill:#333;"/><path d="m303.47,103.7v17.33c0,2.06-.34,3.22-1.68,3.94-1.25.72-3.02.77-5.57.77-.14-1.2-.72-3.02-1.3-4.18,1.34.05,2.78.05,3.22.05.48,0,.62-.19.62-.62v-4.37c-1.58,1.06-3.12,2.06-4.66,2.98l-1.25-2.69c-.38,3.26-1.2,6.72-2.88,9.22-.82-.82-2.93-2.26-3.98-2.74,2.35-3.6,2.54-8.5,2.54-12.29v-7.34h-2.4v-7.44h1.87v-13.68h15.6v13.68h2.02v7.39h-2.16Zm-2.16-3.55h-10.99v1.92h10.99v-1.92Zm-8.88-3.84h1.87v-7.68h4.66v-1.97h-6.53v9.65Zm.72,14.88c0,1.39-.05,2.83-.14,4.42,1.63-.67,3.6-1.63,5.76-2.69v-2.11l-1.92,2.11c-.82-.82-2.3-2.11-3.7-3.17v1.44Zm0-2.69l1.63-1.63c1.39.91,2.93,1.97,3.98,2.88v-3.98h-5.62v2.74Zm5.81-12.19v-4.46h-1.78v4.46h1.78Zm31.68,24.77v4.13h-25.35v-4.13h5.66c-.38-1.2-.86-2.45-1.3-3.5l3.02-.91h-5.09v-9.36h20.69v9.36h-5.47l3.7,1.01c-.77,1.2-1.44,2.35-2.11,3.41h6.24Zm-.38-15.36h-24.48v-4.08h24.48v4.08Zm-.91-5.71h-22.85v-15.41h5.66v-3.41h4.42v3.41h2.11v-3.41h4.46v3.41h6.19v15.41Zm-18.63-9.46h2.45v-2.21h-2.45v2.21Zm0,5.71h2.45v-2.26h-2.45v2.26Zm1.87,16.99h10.42v-2.5h-10.42v2.5Zm1.58,3.41c.58,1.44,1.2,3.07,1.63,4.42h3.89c.58-1.44,1.2-3.07,1.58-4.42h-7.1Zm4.75-26.11v-2.21h-2.3v2.21h2.3Zm-2.3,3.46v2.26h2.3v-2.26h-2.3Zm8.3-5.67h-2.54v2.21h2.54v-2.21Zm0,5.67h-2.54v2.26h2.54v-2.26Z" style="fill:#333;"/><path d="m377.39,90.21h-9.98c3.17,2.35,6.58,5.28,8.45,7.44l-4.37,2.74h2.02v19.49c0,3.07-.82,4.32-3.12,5.04-2.26.67-5.76.62-10.42.62-.14-1.49-.72-3.41-1.34-4.85,2.64.19,6.58.19,7.39.14.96-.05,1.25-.29,1.25-1.06v-3.46c-7.06,1.54-14.16,2.98-19.73,4.13l-1.68-5.04c3.98-.53,9.94-1.39,16.18-2.35-3.79-1.54-10.13-3.17-15.07-3.89l1.68-3.41c5.38.62,12.53,2.3,16.37,3.94l-1.49,3.12,3.74-.58v-7.15h-21.46v2.98c0,5.62-.86,13.44-5.23,18.43-.96-1.01-3.41-2.78-4.7-3.36,3.94-4.42,4.32-10.61,4.32-15.17v-7.58h30.29c-.62-.77-1.44-1.63-2.35-2.54-23.43.91-26.26.96-28.32,1.68-.29-1.1-1.15-3.74-1.73-5.23,1.34-.24,2.5-1.06,4.32-2.35.53-.34,1.25-.96,2.16-1.73h-9.7v-4.99h15.07c1.44-1.49,2.88-3.02,4.08-4.66l5.81,2.21c-.72.82-1.49,1.63-2.3,2.45h19.87v4.99Zm-13.97,3.36c-1.01-.77-1.97-1.54-2.88-2.21l1.92-1.15h-10.22c-1.63,1.39-3.22,2.64-4.8,3.79l15.99-.43Z" style="fill:#333;"/><path d="m418.14,119.59h-4.08c3.98,1.1,7.92,2.3,10.61,3.12l-4.75,3.17c-3.12-1.25-8.45-3.02-13.68-4.42l2.26-1.87h-8.88l2.5,1.73c-3.94,1.97-10.42,3.79-15.79,4.56-.77-1.01-2.3-2.69-3.26-3.65,3.84-.48,8.35-1.54,11.67-2.64h-4.32v-10.22c-1.82.96-3.7,1.78-5.62,2.4-.77-1.25-2.21-3.12-3.36-4.08,3.84-.96,7.78-2.64,10.85-4.7h-9.17v-3.89h11.57v-1.34h-5.86v-2.88h5.86v-1.44h-6.43v-1.58h-4.85v-8.02h18.29c-.29-.67-.58-1.3-.86-1.87l5.67-1.44c.58.96,1.2,2.21,1.63,3.31h16.99v8.02h-4.8v1.58h-6.48v1.44h6.14v2.88h-6.14v1.34h11.57v3.89h-7.97c2.78,1.68,6.19,3.02,9.55,3.79-1.2,1.01-2.74,3.02-3.5,4.32-1.82-.58-3.6-1.34-5.33-2.3v10.8Zm-23.47-29.23v-1.63h5.23v1.63h8.59v-1.63h5.33v1.63h5.86v-2.26h-31.11v2.26h6.1Zm18,18.29v-1.39h-17.04v1.39h17.04Zm0,4.08v-1.44h-17.04v1.44h17.04Zm-17.04,2.59v1.54h17.04v-1.54h-17.04Zm3.07-12.34c-.43.53-.91,1.01-1.39,1.49h14.79c-.53-.48-1.01-.96-1.49-1.49h-11.9Zm1.2-8.11h8.59v-1.44h-8.59v1.44Zm0,4.22h8.59v-1.34h-8.59v1.34Z" style="fill:#333;"/><path d="m474.35,112.63h-4.99v8.35h-5.81v-1.97h-8.64v1.49c0,2.83-.67,3.98-2.54,4.8-1.82.72-4.42.82-8.5.82-.29-1.34-1.15-3.31-1.87-4.51,2.3.1,5.14.1,5.91.1.91-.05,1.2-.34,1.2-1.2v-1.49h-14.59v-4.13h14.59v-2.26h-19.01v-4.37h19.01v-2.06h-14.21v-3.84h14.21v-2.11h-13.01v-9.5h13.01v-1.97h-17.91v-4.51h17.91v-3.12h5.81v3.12h18.34v4.51h-18.34v1.97h13.63v9.5h-13.63v2.11h14.45v5.9h4.99v4.37Zm-25.25-15.99v-2.3h-7.54v2.3h7.54Zm5.81-2.3v2.3h7.78v-2.3h-7.78Zm0,13.92h8.64v-2.06h-8.64v2.06Zm8.64,4.37h-8.64v2.26h8.64v-2.26Z" style="fill:#333;"/><path d="m522.26,88.39h-8.35c1.44,1.1,2.88,2.35,3.7,3.26l-3.17,2.83h6.38v8.35h-5.86v-4.08h-29.62v4.08h-5.52v-8.35h1.73c-.86-1.01-2.64-2.88-3.7-3.7,2.83-2.5,5.52-6.29,7.01-10.08l5.04,1.44c-.24.62-.53,1.3-.86,1.92h10.56v3.98c2.11-1.92,3.98-4.61,5.04-7.34l5.14,1.34c-.24.67-.53,1.34-.86,2.02h13.3l.05,4.32Zm-30.19,6.1c-.96-1.3-2.88-3.17-4.37-4.46l1.78-1.58h-2.83c-1.49,2.35-3.22,4.42-4.8,6.05h10.23Zm-.67,19.15h25.97v12.38h-5.71v-1.3h-20.26v1.3h-5.81v-25.3h29.23v10.71h-23.43v2.21Zm0-8.79v2.5h17.86v-2.5h-17.86Zm0,12.96v2.69h20.26v-2.69h-20.26Zm10.03-27.03c-.91-.77-1.92-1.54-2.69-2.02l.43-.34h-6.34c1.06.96,2.16,2.06,2.83,2.88l-3.46,3.17h5.47c-.38-.91-.77-1.92-1.25-2.74l4.99-.96Zm11.86,3.7c-1.2-1.34-3.22-3.07-4.75-4.32l2.06-1.78h-4.27c-1.01,1.44-2.21,2.78-3.36,3.74-.34-.34-.82-.72-1.34-1.15.67,1.01,1.39,2.35,1.82,3.5h9.84Z" style="fill:#333;"/><path d="m542.37,116.38c-5.28,1.87-11.04,3.7-15.65,5.18l-1.3-5.81c1.68-.43,3.65-.96,5.86-1.58v-11.28h-4.85v-5.23h4.85v-8.45h-5.28v-5.33h15.84v5.33h-5.14v8.45h4.32v5.23h-4.32v9.6c1.58-.48,3.17-.96,4.7-1.49l.96,5.38Zm28.51,2.93v5.18h-30.87v-5.18h13.25v-4.56h-9.94v-5.14h9.94v-4.13h-9.6v-22.32h25.06v22.32h-9.65v4.13h10.18v5.14h-10.18v4.56h11.81Zm-22.08-27.31h4.94v-3.98h-4.94v3.98Zm0,8.64h4.94v-4.13h-4.94v4.13Zm14.5-12.62h-4.75v3.98h4.75v-3.98Zm0,8.5h-4.75v4.13h4.75v-4.13Z" style="fill:#333;"/><path d="m589.69,114.17c-2.83,3.65-7.1,7.58-10.56,9.94-1.2-1.01-3.55-2.88-4.99-3.74,3.6-1.97,7.44-5.23,9.75-8.26l5.81,2.06Zm9.6-3.84v9.5c0,2.83-.58,4.27-2.69,5.18-2.02.86-4.75.91-8.31.91-.29-1.68-1.25-4.08-2.06-5.57,2.45.1,5.38.1,6.19.1.82-.05,1.06-.19,1.06-.77v-8.88c-10.9.86-13.06,1.2-14.74,1.82-.24-1.01-1.06-3.74-1.68-5.14,1.92-.29,3.74-1.01,6.67-2.45,1.49-.62,4.27-2.02,7.58-3.98-7.68.53-9.31.77-10.42,1.25-.29-1.1-1.1-3.79-1.68-5.28,1.3-.19,2.4-.72,4.03-1.58,1.3-.62,4.51-2.45,7.68-4.85-4.61.91-9.26,1.63-13.68,2.21-.19-1.44-.96-3.65-1.58-4.85,11.04-1.49,23.14-3.98,30.48-7.1l4.22,4.51c-3.98,1.58-8.74,2.93-13.78,4.03l2.59,1.68c-2.59,1.92-5.33,3.74-8.16,5.38l8.3-.43c1.78-1.25,3.46-2.5,5.09-3.84l4.22,3.79c-5.09,3.84-10.66,7.15-16.23,9.89l13.54-.91c-1.01-1.2-2.06-2.35-3.07-3.41l4.75-2.4c3.41,3.41,7.34,7.87,9.36,10.8l-4.85,2.93c-.62-.96-1.44-2.11-2.45-3.36l-10.42.82Zm7.2,1.15c3.7,2.45,8.45,6.14,10.75,8.78l-5.04,3.36c-2.06-2.54-6.67-6.43-10.37-9.12l4.66-3.02Z" style="fill:#333;"/><path d="m627.57,113.4c-.34,4.27-1.1,8.83-2.11,11.71-.91-.58-3.07-1.25-4.22-1.54,1.1-2.78,1.63-7.06,1.92-10.9l4.42.72Zm8.5-2.83c-.1-.67-.24-1.34-.43-2.16-9.6,1.68-11.18,2.21-12.24,2.74-.24-1.06-1.1-3.65-1.78-5.09,1.3-.34,2.3-1.34,3.74-3.17.62-.67,1.68-1.97,2.93-3.79-3.55.43-4.61.67-5.28,1.01-.29-1.1-1.15-3.6-1.73-5.04.91-.24,1.73-1.15,2.69-2.59,1.01-1.34,3.89-6.67,5.62-11.76l5.09,2.21c-1.78,4.08-4.18,8.4-6.67,11.95l3.17-.24c1.3-2.26,2.64-4.8,3.7-7.2l4.7,2.93c-2.74,5.18-6.34,10.42-9.98,14.74l4.8-.77c-.43-1.25-.91-2.5-1.39-3.55l3.84-1.49c1.49,3.07,2.93,7.01,3.36,9.6l-4.13,1.68Zm-3.5,1.68c.58,3.17,1.15,7.15,1.3,9.89l-4.22,1.06c-.1-2.69-.58-6.77-1.06-9.89l3.98-1.06Zm5.09-1.39c.86,2.5,1.87,5.71,2.35,7.78l-3.98,1.49c-.38-2.16-1.34-5.47-2.21-7.97l3.84-1.3Zm23.14,9.22c.86,0,1.01-.91,1.15-6.53,1.1.86,3.36,1.78,4.8,2.11-.48,7.39-1.78,9.46-5.38,9.46h-3.46c-4.37,0-5.33-1.68-5.33-6.72v-14.3l-2.74.34c-.38,10.27-1.68,17.47-9.5,21.75-.62-1.39-2.26-3.5-3.46-4.46,6.34-3.26,7.3-8.54,7.58-16.56-1.82.24-2.59.48-3.26.77-.29-1.1-1.25-3.94-1.92-5.47,1.15-.34,2.11-1.49,3.31-3.46.58-.77,1.68-2.59,2.88-4.99h-5.71v-5.33h8.16c.77-1.87,1.54-3.79,2.16-5.76l6.19,1.63c-.58,1.39-1.15,2.74-1.78,4.13h11.28v5.33h-13.97c-1.44,2.74-3.02,5.28-4.56,7.58l10.13-.96c-.77-1.3-1.54-2.54-2.21-3.74l4.61-2.06c2.45,3.7,5.33,8.59,6.48,11.91l-4.99,2.3c-.34-1.1-.86-2.35-1.49-3.74l-1.87.24v14.88c0,1.49.1,1.68.91,1.68h1.97Z" style="fill:#333;"/></g><g><path d="m295.17,164.36c.99,0,1.8-.11,2.42-.33,1.18-.42,1.76-1.2,1.76-2.34,0-.67-.29-1.18-.88-1.54-.58-.36-1.5-.67-2.75-.94l-2.13-.48c-2.1-.47-3.55-.99-4.35-1.54-1.36-.93-2.04-2.38-2.04-4.36,0-1.8.66-3.3,1.97-4.5s3.24-1.79,5.78-1.79c2.12,0,3.94.56,5.43,1.69,1.5,1.13,2.29,2.76,2.36,4.9h-4.05c-.07-1.21-.6-2.07-1.59-2.58-.66-.34-1.47-.51-2.45-.51-1.08,0-1.95.22-2.6.66-.65.44-.97,1.05-.97,1.83,0,.72.32,1.26.96,1.61.41.24,1.29.51,2.62.83l3.47.83c1.52.36,2.67.85,3.45,1.46,1.2.95,1.8,2.32,1.8,4.12s-.7,3.37-2.11,4.59-3.4,1.83-5.97,1.83-4.69-.6-6.19-1.8-2.26-2.85-2.26-4.94h4.02c.13.92.38,1.61.75,2.06.68.83,1.85,1.24,3.51,1.24Z" style="fill:#333;"/><path d="m318.7,153.97c1.2,1.29,1.8,3.17,1.8,5.66,0,2.62-.59,4.63-1.77,6-1.18,1.38-2.7,2.06-4.56,2.06-1.19,0-2.17-.3-2.95-.89-.43-.33-.85-.81-1.26-1.44v7.77h-3.86v-20.77h3.73v2.2c.42-.65.87-1.16,1.34-1.53.87-.67,1.9-1,3.09-1,1.74,0,3.22.64,4.43,1.93Zm-2.21,5.85c0-1.15-.26-2.17-.79-3.05-.52-.88-1.37-1.33-2.55-1.33-1.41,0-2.38.67-2.91,2.01-.27.71-.41,1.61-.41,2.71,0,1.73.46,2.95,1.38,3.65.55.41,1.19.62,1.94.62,1.08,0,1.91-.42,2.48-1.26.57-.84.85-1.96.85-3.35Z" style="fill:#333;"/><path d="m335.75,154.25c1.26,1.58,1.89,3.44,1.89,5.59s-.63,4.06-1.89,5.61-3.17,2.33-5.73,2.33-4.47-.78-5.73-2.33-1.89-3.42-1.89-5.61.63-4.01,1.89-5.59,3.17-2.37,5.73-2.37,4.47.79,5.73,2.37Zm-5.74.93c-1.14,0-2.02.4-2.63,1.21s-.92,1.96-.92,3.45.31,2.65.92,3.46,1.49,1.22,2.63,1.22,2.01-.41,2.62-1.22c.61-.81.92-1.96.92-3.46s-.31-2.65-.92-3.45c-.61-.81-1.49-1.21-2.62-1.21Z" style="fill:#333;"/><path d="m347.92,155.96c-1.57,0-2.62.51-3.16,1.53-.3.57-.45,1.46-.45,2.65v7.12h-3.92v-14.9h3.72v2.6c.6-.99,1.13-1.67,1.57-2.04.73-.61,1.68-.92,2.84-.92.07,0,.13,0,.18,0,.05,0,.16.01.33.02v3.99c-.25-.03-.46-.05-.66-.05s-.35-.01-.46-.01Z" style="fill:#333;"/><path d="m358.14,164.49v2.91l-1.85.07c-1.84.06-3.1-.25-3.77-.96-.44-.45-.66-1.13-.66-2.06v-9.17h-2.08v-2.78h2.08v-4.16h3.86v4.16h2.42v2.78h-2.42v7.88c0,.61.08.99.23,1.14.15.15.63.23,1.42.23.12,0,.24,0,.38,0,.13,0,.26-.01.39-.02Z" style="fill:#333;"/><path d="m374.99,158.46h-9.79v5.18h11.16v3.62h-15.27v-20.15h14.78v3.57h-10.66v4.28h9.79v3.5Z" style="fill:#333;"/><path d="m377.86,152.37h4.38l3.1,10.99,3.17-10.99h4.18l-5.37,14.9h-4.12l-5.35-14.9Z" style="fill:#333;"/><path d="m407.65,162.89c-.1.88-.56,1.78-1.38,2.69-1.28,1.45-3.06,2.17-5.36,2.17-1.9,0-3.57-.61-5.02-1.83s-2.17-3.21-2.17-5.96c0-2.58.65-4.56,1.96-5.93,1.31-1.38,3-2.06,5.09-2.06,1.24,0,2.36.23,3.35.7.99.46,1.81,1.2,2.46,2.2.58.88.96,1.91,1.13,3.08.1.68.14,1.67.12,2.95h-10.2c.05,1.5.52,2.54,1.41,3.14.54.37,1.18.56,1.94.56.8,0,1.45-.23,1.96-.68.27-.25.51-.59.72-1.03h3.98Zm-3.86-4.57c-.06-1.03-.38-1.81-.94-2.34s-1.26-.8-2.08-.8c-.9,0-1.6.28-2.1.85-.5.57-.81,1.33-.94,2.3h6.06Z" style="fill:#333;"/><path d="m417.48,155.25c-1.32,0-2.23.56-2.72,1.68-.26.59-.38,1.35-.38,2.27v8.07h-3.88v-14.88h3.76v2.17c.5-.77.97-1.32,1.42-1.65.8-.6,1.82-.9,3.05-.9,1.54,0,2.8.4,3.78,1.21.98.81,1.47,2.14,1.47,4.01v10.04h-3.99v-9.06c0-.78-.11-1.39-.31-1.8-.38-.77-1.11-1.15-2.19-1.15Z" style="fill:#333;"/><path d="m434.39,164.49v2.91l-1.85.07c-1.84.06-3.1-.25-3.77-.96-.44-.45-.66-1.13-.66-2.06v-9.17h-2.08v-2.78h2.08v-4.16h3.86v4.16h2.42v2.78h-2.42v7.88c0,.61.08.99.23,1.14.15.15.63.23,1.42.23.12,0,.24,0,.38,0,.13,0,.26-.01.39-.02Z" style="fill:#333;"/><path d="m453.54,160.02h-4.28v7.25h-4.18v-20.15h8.78c2.02,0,3.64.52,4.84,1.56s1.8,2.65,1.8,4.83c0,2.38-.6,4.06-1.8,5.04s-2.92,1.48-5.15,1.48Zm1.97-4.2c.55-.48.82-1.25.82-2.3s-.28-1.8-.83-2.24-1.32-.67-2.32-.67h-3.92v5.93h3.92c.99,0,1.77-.24,2.32-.72Z" style="fill:#333;"/><path d="m470.84,155.96c-1.57,0-2.62.51-3.16,1.53-.3.57-.45,1.46-.45,2.65v7.12h-3.92v-14.9h3.72v2.6c.6-.99,1.13-1.67,1.57-2.04.73-.61,1.68-.92,2.84-.92.07,0,.13,0,.18,0s.16.01.33.02v3.99c-.25-.03-.46-.05-.66-.05s-.35-.01-.46-.01Z" style="fill:#333;"/><path d="m486.67,154.25c1.26,1.58,1.89,3.44,1.89,5.59s-.63,4.06-1.89,5.61-3.17,2.33-5.73,2.33-4.47-.78-5.73-2.33-1.89-3.42-1.89-5.61.63-4.01,1.89-5.59,3.17-2.37,5.73-2.37,4.47.79,5.73,2.37Zm-5.74.93c-1.14,0-2.02.4-2.63,1.21s-.92,1.96-.92,3.45.31,2.65.92,3.46,1.49,1.22,2.63,1.22,2.01-.41,2.62-1.22.92-1.96.92-3.46-.31-2.65-.92-3.45-1.49-1.21-2.62-1.21Z" style="fill:#333;"/><path d="m504.77,157.43c-.47,0-.88.06-1.23.18-.61.22-1.07.62-1.38,1.22l-3.5-.16,1.39-10.95h10.92v3.31h-8.11l-.71,4.33c.6-.39,1.07-.65,1.41-.78.57-.21,1.25-.31,2.06-.31,1.64,0,3.07.55,4.29,1.65s1.83,2.71,1.83,4.81c0,1.83-.59,3.47-1.76,4.91s-2.93,2.16-5.28,2.16c-1.89,0-3.44-.51-4.65-1.52s-1.89-2.45-2.02-4.31h3.88c.16.85.45,1.5.89,1.96s1.08.69,1.91.69c.97,0,1.7-.34,2.21-1.02s.76-1.53.76-2.56-.24-1.87-.71-2.56-1.21-1.05-2.21-1.05Z" style="fill:#333;"/><path d="m529.46,146.99v3.17c-.22-.03-.59-.05-1.1-.06s-.87.1-1.07.34-.29.51-.29.8v1.26h2.56v2.75h-2.56v12.02h-3.88v-12.02h-2.17v-2.75h2.13v-.96c0-1.59.27-2.69.81-3.29.57-.89,1.93-1.34,4.09-1.34.25,0,.47,0,.67.02s.47.03.82.06Z" style="fill:#333;"/><path d="m544.23,154.25c1.26,1.58,1.89,3.44,1.89,5.59s-.63,4.06-1.89,5.61-3.17,2.33-5.73,2.33-4.47-.78-5.73-2.33-1.89-3.42-1.89-5.61.63-4.01,1.89-5.59,3.17-2.37,5.73-2.37,4.47.79,5.73,2.37Zm-5.74.93c-1.14,0-2.02.4-2.63,1.21s-.92,1.96-.92,3.45.31,2.65.92,3.46,1.49,1.22,2.63,1.22,2.01-.41,2.62-1.22.92-1.96.92-3.46-.31-2.65-.92-3.45-1.49-1.21-2.62-1.21Z" style="fill:#333;"/><path d="m556.4,155.96c-1.57,0-2.62.51-3.16,1.53-.3.57-.45,1.46-.45,2.65v7.12h-3.92v-14.9h3.72v2.6c.6-.99,1.13-1.67,1.57-2.04.73-.61,1.68-.92,2.84-.92.07,0,.13,0,.18,0s.16.01.33.02v3.99c-.25-.03-.46-.05-.66-.05s-.35-.01-.46-.01Z" style="fill:#333;"/><path d="m584.19,167.27h-4.21l-8.23-14.31v14.31h-3.92v-20.15h4.42l8.03,14.07v-14.07h3.92v20.15Z" style="fill:#333;"/><path d="m595.43,164.36c.99,0,1.8-.11,2.42-.33,1.18-.42,1.76-1.2,1.76-2.34,0-.67-.29-1.18-.88-1.54-.58-.36-1.5-.67-2.75-.94l-2.13-.48c-2.1-.47-3.55-.99-4.35-1.54-1.36-.93-2.04-2.38-2.04-4.36,0-1.8.66-3.3,1.97-4.5s3.24-1.79,5.78-1.79c2.12,0,3.94.56,5.43,1.69s2.29,2.76,2.36,4.9h-4.05c-.07-1.21-.6-2.07-1.59-2.58-.66-.34-1.47-.51-2.45-.51-1.08,0-1.95.22-2.6.66s-.97,1.05-.97,1.83c0,.72.32,1.26.96,1.61.41.24,1.29.51,2.62.83l3.47.83c1.52.36,2.67.85,3.45,1.46,1.2.95,1.8,2.32,1.8,4.12s-.7,3.37-2.11,4.59-3.4,1.83-5.97,1.83-4.69-.6-6.19-1.8-2.26-2.85-2.26-4.94h4.02c.13.92.38,1.61.75,2.06.68.83,1.85,1.24,3.51,1.24Z" style="fill:#333;"/><path d="m623.06,147.12l-6.74,12.58v7.57h-4.21v-7.57l-6.97-12.58h4.96l4.18,8.78,4.01-8.78h4.77Z" style="fill:#333;"/><path d="m632.78,164.36c.99,0,1.8-.11,2.42-.33,1.18-.42,1.76-1.2,1.76-2.34,0-.67-.29-1.18-.88-1.54-.58-.36-1.5-.67-2.75-.94l-2.13-.48c-2.1-.47-3.55-.99-4.35-1.54-1.36-.93-2.04-2.38-2.04-4.36,0-1.8.66-3.3,1.97-4.5s3.24-1.79,5.78-1.79c2.12,0,3.94.56,5.43,1.69s2.29,2.76,2.36,4.9h-4.05c-.07-1.21-.6-2.07-1.59-2.58-.66-.34-1.47-.51-2.45-.51-1.08,0-1.95.22-2.6.66s-.97,1.05-.97,1.83c0,.72.32,1.26.96,1.61.41.24,1.29.51,2.62.83l3.47.83c1.52.36,2.67.85,3.45,1.46,1.2.95,1.8,2.32,1.8,4.12s-.7,3.37-2.11,4.59-3.4,1.83-5.97,1.83-4.69-.6-6.19-1.8-2.26-2.85-2.26-4.94h4.02c.13.92.38,1.61.75,2.06.68.83,1.85,1.24,3.51,1.24Z" style="fill:#333;"/><path d="m656.07,159.5v-12.39h4.28v12.39c0,2.14-.33,3.81-1,5-1.24,2.19-3.6,3.28-7.1,3.28s-5.86-1.09-7.11-3.28c-.67-1.19-1-2.86-1-5v-12.39h4.28v12.39c0,1.39.16,2.4.49,3.04.51,1.13,1.62,1.7,3.34,1.7s2.81-.57,3.32-1.7c.33-.64.49-1.65.49-3.04Z" style="fill:#333;"/></g></g></svg>