<?xml version="1.0" encoding="UTF-8"?><svg id="a" xmlns="http://www.w3.org/2000/svg" viewBox="0 0 542.5 81.74"><path d="m79.4,19.93h-20.14v41.27h-9.14V19.93h-20.18v-9.14h49.46v9.14Z" style="fill:#36f; stroke-width:0px;"/><path d="m121.97,35.79c0,1.27-.22,2.63-.67,4.1-.45,1.46-1.17,2.82-2.16,4.08-1,1.25-2.3,2.3-3.9,3.15-1.61.84-3.56,1.27-5.85,1.27h-16.49v-8.68h16.49c1.24,0,2.2-.38,2.88-1.14.68-.76,1.02-1.71,1.02-2.83,0-1.2-.38-2.13-1.14-2.81-.76-.68-1.68-1.02-2.76-1.02h-16.49c-1.24,0-2.2.38-2.88,1.14-.68.76-1.02,1.71-1.02,2.83v12.76c0,1.22.38,2.17,1.14,2.85.76.68,1.71,1.02,2.83,1.02h16.42v8.72h-16.49c-1.27,0-2.63-.22-4.1-.67-1.46-.45-2.82-1.17-4.08-2.16-1.25-1-2.3-2.3-3.15-3.9s-1.27-3.56-1.27-5.85v-12.83c0-1.27.22-2.63.67-4.1.44-1.46,1.17-2.82,2.16-4.08,1-1.25,2.3-2.3,3.9-3.15,1.6-.84,3.56-1.27,5.85-1.27h16.49c1.27,0,2.63.22,4.1.67,1.46.45,2.82,1.17,4.08,2.16,1.25,1,2.3,2.3,3.15,3.9.84,1.61,1.27,3.56,1.27,5.85Z" style="fill:#36f; stroke-width:0px;"/><path d="m164.94,61.21h-24.79c-1.27,0-2.65-.22-4.15-.67-1.5-.45-2.89-1.18-4.17-2.2-1.28-1.02-2.34-2.34-3.2-3.97-.86-1.63-1.28-3.63-1.28-5.99v-12.38c0-.87.1-1.78.3-2.74.2-.96.51-1.92.93-2.87s.97-1.86,1.63-2.72c.67-.87,1.48-1.63,2.43-2.29.95-.66,2.04-1.18,3.29-1.58,1.24-.4,2.65-.6,4.22-.6h24.79v9.14h-24.79c-1.2,0-2.1.3-2.72.91-.62.61-.93,1.55-.93,2.81v12.3c0,1.2.32,2.11.95,2.74s1.56.95,2.78.95h24.71v9.14Z" style="fill:#36f; stroke-width:0px;"/><path d="m181.77,61.21h-9.14V7.14h9.14v54.07Zm32.98,0h-9.14v-25.21c0-1.2-.3-2.1-.91-2.72-.61-.62-1.52-.93-2.74-.93h-16.49v-9.14h16.49c.87,0,1.78.1,2.74.3.96.2,1.92.51,2.87.93s1.86.97,2.72,1.63c.87.67,1.63,1.48,2.29,2.43.66.95,1.18,2.04,1.58,3.29.4,1.24.6,2.65.6,4.22v25.21Z" style="fill:#36f; stroke-width:0px;"/><path d="m274.52,57.3c0,.66-.12,1.27-.37,1.83s-.57,1.05-.98,1.46-.9.73-1.46.97c-.56.23-1.16.35-1.79.35-.56,0-1.13-.11-1.71-.32s-1.08-.55-1.53-1.02l-33.4-34.88v35.51h-9.14V14.7c0-.94.26-1.79.79-2.55.53-.76,1.2-1.33,2.02-1.71.87-.35,1.76-.44,2.67-.26s1.7.6,2.36,1.28l33.4,34.84V10.79h9.14v46.51Z" style="fill:#36f; stroke-width:0px;"/><path d="m333.58,46.37c0,1.8-.23,3.43-.69,4.87s-1.06,2.71-1.81,3.81-1.63,2.04-2.64,2.81-2.05,1.41-3.13,1.9-2.17.86-3.29,1.09-2.16.35-3.15.35h-35.26v-9.14h35.26c1.76,0,3.12-.52,4.1-1.55s1.46-2.41,1.46-4.15c0-.84-.13-1.62-.39-2.32s-.63-1.31-1.11-1.83-1.07-.91-1.76-1.2-1.46-.42-2.3-.42h-21.02c-1.48,0-3.07-.26-4.78-.79s-3.3-1.38-4.76-2.55c-1.46-1.17-2.68-2.71-3.66-4.61s-1.46-4.22-1.46-6.96.49-5.06,1.46-6.94c.97-1.89,2.19-3.42,3.66-4.61,1.46-1.18,3.05-2.04,4.76-2.57s3.3-.79,4.78-.79h31.11v9.14h-31.11c-1.73,0-3.09.53-4.06,1.58s-1.46,2.45-1.46,4.18.49,3.15,1.46,4.17,2.33,1.53,4.06,1.53h21.09c.98.02,2.03.16,3.13.4s2.2.63,3.29,1.14c1.09.52,2.13,1.17,3.11,1.95.98.79,1.86,1.73,2.62,2.83s1.37,2.37,1.81,3.8.67,3.05.67,4.85Z" style="fill:#36f; stroke-width:0px;"/><path d="m382.06,48.38c0,1.57-.2,2.98-.6,4.24s-.93,2.36-1.58,3.3-1.42,1.76-2.29,2.43-1.78,1.21-2.72,1.63-1.9.73-2.87.93-1.88.3-2.74.3h-16.49v-9.14h16.49c1.22,0,2.13-.32,2.74-.95s.91-1.55.91-2.74v-12.3c0-1.27-.31-2.2-.93-2.81-.62-.61-1.53-.91-2.72-.91h-16.42c-1.24,0-2.18.31-2.81.93-.63.62-.95,1.53-.95,2.72v37.09h-9.14v-37.09c0-1.57.2-2.98.6-4.22.4-1.24.93-2.34,1.6-3.29s1.44-1.76,2.3-2.43,1.78-1.21,2.72-1.63,1.91-.73,2.88-.93c.97-.2,1.88-.3,2.72-.3h16.49c1.57,0,2.98.2,4.22.6,1.24.4,2.34.93,3.29,1.58.95.66,1.76,1.42,2.43,2.29.67.87,1.21,1.78,1.63,2.72s.73,1.9.93,2.87c.2.96.3,1.88.3,2.74v12.38Z" style="fill:#36f; stroke-width:0px;"/><path d="m431.21,48.38c0,1.57-.2,2.98-.6,4.24s-.93,2.36-1.58,3.3-1.42,1.76-2.29,2.43-1.78,1.21-2.72,1.63-1.91.73-2.88.93-1.89.3-2.76.3h-16.49c-1.27,0-2.65-.22-4.15-.67s-2.89-1.18-4.17-2.2-2.34-2.34-3.2-3.97-1.28-3.63-1.28-5.99v-12.38c0-2.34.43-4.33,1.28-5.96.86-1.63,1.92-2.95,3.2-3.97s2.67-1.75,4.17-2.2c1.5-.44,2.88-.67,4.15-.67h16.49c2.34,0,4.34.42,5.98,1.27s2.96,1.9,3.97,3.18c1.01,1.28,1.74,2.67,2.2,4.17.46,1.5.69,2.9.69,4.18v12.38Zm-9.14-12.3c0-1.27-.32-2.2-.95-2.81-.63-.61-1.55-.91-2.74-.91h-16.42c-1.22,0-2.14.31-2.78.93-.63.62-.95,1.53-.95,2.72v12.38c0,1.2.32,2.11.95,2.74s1.56.95,2.78.95h16.42c1.24,0,2.17-.32,2.78-.95s.91-1.55.91-2.74v-12.3Z" style="fill:#36f; stroke-width:0px;"/><path d="m472.24,32.34h-20.57c-1.24,0-2.18.31-2.81.93-.63.62-.95,1.53-.95,2.72v25.21h-9.14v-25.21c0-1.57.2-2.98.6-4.22.4-1.24.93-2.34,1.6-3.29s1.44-1.76,2.3-2.43,1.78-1.21,2.72-1.63,1.91-.73,2.88-.93c.97-.2,1.88-.3,2.72-.3h20.64v9.14Z" style="fill:#36f; stroke-width:0px;"/><path d="m512.81,32.34h-15.96v28.86h-9.25v-28.86h-11.88v-9.14h11.88v-12.41h9.25v12.41h15.96v9.14Z" style="fill:#36f; stroke-width:0px;"/></svg>